<svg xmlns="http://www.w3.org/2000/svg" width="29.463" height="29.37" viewBox="0 0 29.463 29.37"><defs><style>.a{fill:#fefefe;}</style></defs><path class="a" d="M6.246,27.514,5.8,25.307a.959.959,0,1,1-.522-1.845l16.777-4.515a.959.959,0,0,1,.494,1.853L7.644,24.811l.47,2.324a.432.432,0,0,0,.526.31l18.6-5.005a.431.431,0,0,0,.3-.527L21.7,4.392c-.1-.249-.208-.518-.565-.422l-3.208.863.6,2.246a.955.955,0,1,1-1.845.5l-.6-2.245L9.785,7.023l.6,2.246a.955.955,0,1,1-1.845.5l-.6-2.246-3.209.863a.439.439,0,0,0-.292.582L5.5,14.189a.96.96,0,0,1,.1,1.874l-1.868.5a.959.959,0,0,1-.494-1.853l.4-.108-1.052-5.2A2.375,2.375,0,0,1,4.238,6.53l3.283-.884A5.165,5.165,0,0,1,17.354,3l3.283-.884A2.284,2.284,0,0,1,23.5,3.783l5.865,17.58a2.351,2.351,0,0,1-1.635,2.929L9.134,29.3a2.169,2.169,0,0,1-.564.073A2.315,2.315,0,0,1,6.246,27.514Zm5.58-25.486a3.285,3.285,0,0,0-2.414,3.11l6.053-1.629a3.276,3.276,0,0,0-2.8-1.591A3.21,3.21,0,0,0,11.826,2.028ZM.033,25.867a.959.959,0,0,1,.675-1.175l1.418-.382a.959.959,0,0,1,.494,1.853L1.2,26.545a.952.952,0,0,1-1.169-.678Zm3.262-5.837a.96.96,0,0,1,.675-1.175L18,15.079a.959.959,0,0,1,.494,1.853L4.464,20.707a.952.952,0,0,1-1.169-.678Zm3.847-5.375a.959.959,0,0,1,.675-1.175l5.735-1.543a.959.959,0,0,1,.494,1.853L8.311,15.332a.952.952,0,0,1-1.169-.678Z" transform="translate(0)"/></svg>