<svg xmlns="http://www.w3.org/2000/svg" width="20.219" height="27.614" viewBox="0 0 20.219 27.614"><defs><style>.a{fill:#49d8f7;}</style></defs><g transform="translate(0)"><path class="a" d="M88.762,23.85,87.293,7.689a.865.865,0,0,0-.861-.785H83.843V5.178a5.178,5.178,0,1,0-10.355,0V6.9H70.9a.862.862,0,0,0-.859.785L68.571,23.85a3.451,3.451,0,0,0,3.438,3.764H85.324a3.451,3.451,0,0,0,3.438-3.764ZM75.214,5.178a3.452,3.452,0,1,1,6.9,0V6.9h-6.9ZM86.6,25.327a1.713,1.713,0,0,1-1.275.561H72.009a1.726,1.726,0,0,1-1.717-1.883l1.4-15.376h1.8v2.589a.863.863,0,1,0,1.726,0V8.629h6.9v2.589a.863.863,0,1,0,1.726,0V8.629h1.8l1.4,15.378A1.7,1.7,0,0,1,86.6,25.327Z" transform="translate(-68.557)"/></g></svg>