<svg xmlns="http://www.w3.org/2000/svg" width="21.054" height="15.865" viewBox="0 0 21.054 15.865"><defs><style>.a{fill:#233ba0;stroke:#233ba0;stroke-width:0.3px;}</style></defs><path class="a" d="M18.808,59.882H1.946A1.948,1.948,0,0,0,0,61.828V73.5a1.948,1.948,0,0,0,1.946,1.946H18.808A1.948,1.948,0,0,0,20.754,73.5V61.828A1.948,1.948,0,0,0,18.808,59.882Zm0,1.3a.645.645,0,0,1,.249.05l-8.68,7.523L1.7,61.229a.645.645,0,0,1,.249-.05Zm0,12.971H1.946A.649.649,0,0,1,1.3,73.5V62.6l8.655,7.5a.65.65,0,0,0,.85,0l8.655-7.5V73.5A.649.649,0,0,1,18.808,74.15Z" transform="translate(0.15 -59.732)"/></svg>