<svg xmlns="http://www.w3.org/2000/svg" width="34" height="34" viewBox="0 0 34 34"><defs><style>.a{fill:none;}.b{fill:#49d8f7;}</style></defs><rect class="a" width="34" height="34" transform="translate(0 0)"/><path class="b" d="M13.232,13.826v1.411a2.825,2.825,0,0,1-2.822,2.822H3.322A2.825,2.825,0,0,1,.5,15.237V2.822A2.825,2.825,0,0,1,3.322,0h7.089a2.825,2.825,0,0,1,2.822,2.822V4.232a.705.705,0,0,1-1.411,0V2.822a1.412,1.412,0,0,0-1.411-1.411H3.322A1.412,1.412,0,0,0,1.911,2.822V15.237a1.412,1.412,0,0,0,1.411,1.411h7.089a1.412,1.412,0,0,0,1.411-1.411V13.826a.705.705,0,1,1,1.411,0Zm4.809-6.008-1.58-1.58a.705.705,0,0,0-1,1l1.124,1.124H8.118a.705.705,0,0,0,0,1.411h8.47l-1.124,1.124a.705.705,0,1,0,1,1l1.58-1.58A1.765,1.765,0,0,0,18.042,7.817Zm0,0" transform="translate(7.394 7.894)"/></svg>