<svg xmlns="http://www.w3.org/2000/svg" width="19.893" height="19.893" viewBox="0 0 19.893 19.893"><defs><style>.a{fill:#233ba0;stroke:#233ba0;stroke-linecap:round;stroke-linejoin:round;stroke-width:0.8px;}</style></defs><g transform="translate(0.4 0.4)"><path class="a" d="M16.5-1H.591A1.576,1.576,0,0,0-1,.591V16.5A1.576,1.576,0,0,0,.591,18.093H16.5A1.576,1.576,0,0,0,18.093,16.5V.591A1.576,1.576,0,0,0,16.5-1ZM8.546,17.456V11.092H6V8.546H8.546V6.319a3.524,3.524,0,0,1,3.182-3.5h2.864V5.364H12.047a.938.938,0,0,0-.955.955V8.546h3.182v2.546H11.092v6.364H8.546Zm8.91-.955a.938.938,0,0,1-.955.955H11.729V11.729h3.182V7.91H11.729V6.319A.3.3,0,0,1,12.047,6h3.182V2.182H11.7A4.177,4.177,0,0,0,7.91,6.319V7.91H5.364v3.819H7.91v5.728H.591A.938.938,0,0,1-.364,16.5V.591A.938.938,0,0,1,.591-.364H16.5a.938.938,0,0,1,.955.955V16.5Z" transform="translate(1 1)"/></g></svg>