<svg xmlns="http://www.w3.org/2000/svg" width="19.998" height="19.998" viewBox="0 0 19.998 19.998"><defs><style>.a{fill:#49d8f7;}</style></defs><path class="a" d="M10.2,20H10c-1.568,0-3.016-.036-4.425-.122a5.914,5.914,0,0,1-3.409-1.29A5.472,5.472,0,0,1,.324,15.619a13.155,13.155,0,0,1-.3-3.141C.013,11.747,0,10.882,0,10S.013,8.254.023,7.524a13.156,13.156,0,0,1,.3-3.141A5.472,5.472,0,0,1,2.163,1.414,5.914,5.914,0,0,1,5.573.123C6.981.038,8.43,0,10,0s3.016.036,4.425.122a5.914,5.914,0,0,1,3.409,1.29,5.471,5.471,0,0,1,1.839,2.969,13.156,13.156,0,0,1,.3,3.141c.01.73.021,1.6.023,2.475v0c0,.88-.013,1.745-.023,2.475a13.149,13.149,0,0,1-.3,3.141,5.471,5.471,0,0,1-1.839,2.969,5.914,5.914,0,0,1-3.409,1.29C13.076,19.96,11.691,20,10.2,20ZM10,18.437c1.542,0,2.958-.035,4.333-.119a4.3,4.3,0,0,0,2.517-.942,3.944,3.944,0,0,0,1.312-2.144,11.968,11.968,0,0,0,.253-2.776c.01-.725.02-1.584.022-2.455s-.013-1.73-.022-2.455a11.97,11.97,0,0,0-.253-2.776,3.944,3.944,0,0,0-1.312-2.144,4.3,4.3,0,0,0-2.517-.942C12.955,1.6,11.539,1.561,10,1.564s-2.958.035-4.333.119a4.3,4.3,0,0,0-2.517.942A3.944,3.944,0,0,0,1.838,4.769a11.969,11.969,0,0,0-.253,2.776c-.01.726-.02,1.585-.022,2.457s.013,1.728.022,2.454a11.968,11.968,0,0,0,.253,2.776,3.944,3.944,0,0,0,1.312,2.144,4.3,4.3,0,0,0,2.517.942C7.043,18.4,8.459,18.441,10,18.437ZM9.96,14.883A4.882,4.882,0,1,1,14.842,10,4.888,4.888,0,0,1,9.96,14.883Zm0-8.2A3.32,3.32,0,1,0,13.28,10,3.324,3.324,0,0,0,9.96,6.681Zm5.429-3.125a1.172,1.172,0,1,0,1.172,1.172A1.172,1.172,0,0,0,15.389,3.556Zm0,0" transform="translate(0 -0.001)"/></svg>