<svg xmlns="http://www.w3.org/2000/svg" xmlns:xlink="http://www.w3.org/1999/xlink" width="165.09" height="89.919" viewBox="0 0 165.09 89.919"><defs><style>.a{stroke:rgba(0,0,0,0);stroke-miterlimit:10;fill:url(#a);}.b{fill:url(#b);}.c{fill:#1d308f;}.d{fill:url(#c);}.e{fill:#58dffc;}</style><linearGradient id="a" y1="0.398" x2="0.928" y2="0.416" gradientUnits="objectBoundingBox"><stop offset="0" stop-color="#f0f1f3"/><stop offset="1" stop-color="#f0f1f3" stop-opacity="0"/></linearGradient><linearGradient id="b" x1="0.5" x2="0.5" y2="1" gradientUnits="objectBoundingBox"><stop offset="0" stop-color="#6ae7fd"/><stop offset="1" stop-color="#0dc3ef"/></linearGradient><linearGradient id="c" y1="0.5" x2="1" y2="0.5" gradientUnits="objectBoundingBox"><stop offset="0" stop-color="#1ea2e6"/><stop offset="1" stop-color="#58dffc"/></linearGradient></defs><g transform="translate(0 0.5)"><g transform="translate(39.8)"><ellipse class="a" cx="33.13" cy="32.754" rx="33.13" ry="32.754"/><path class="b" d="M12.967,56.229l-.927-4.51a1.984,1.984,0,0,1-2.485-1.37,1.958,1.958,0,0,1,1.4-2.4l34.83-9.227a1.986,1.986,0,0,1,2.428,1.385,1.959,1.959,0,0,1-1.4,2.4l-30.945,8.2.975,4.749a.9.9,0,0,0,1.092.633L56.548,45.858a.88.88,0,0,0,.628-1.077L45.043,8.976c-.211-.51-.432-1.059-1.172-.863l-6.66,1.764,1.244,4.59a1.959,1.959,0,0,1-1.4,2.4,1.986,1.986,0,0,1-2.428-1.386l-1.243-4.589L20.315,14.353l1.244,4.589a1.958,1.958,0,0,1-1.4,2.4,1.986,1.986,0,0,1-2.428-1.386l-1.243-4.589L9.825,17.132a.894.894,0,0,0-.606,1.19L11.411,29a1.956,1.956,0,0,1,.208,3.83L7.741,33.855a1.985,1.985,0,0,1-2.427-1.386,1.958,1.958,0,0,1,1.4-2.4l.835-.222L5.367,19.222c-.493-2.806.86-5.195,3.432-5.877l6.816-1.806A10.648,10.648,0,0,1,23.525.359a10.807,10.807,0,0,1,12.5,5.773l6.816-1.806c2.591-.686,4.89.492,5.947,3.4L60.967,43.658a4.8,4.8,0,0,1-3.394,5.986L18.962,59.873a4.569,4.569,0,0,1-1.171.15A4.79,4.79,0,0,1,12.967,56.229ZM24.551,4.145A6.733,6.733,0,0,0,19.54,10.5L32.106,7.172a6.822,6.822,0,0,0-7.555-3.027ZM.068,52.862a1.957,1.957,0,0,1,1.4-2.4l2.944-.78a1.986,1.986,0,0,1,2.428,1.385,1.959,1.959,0,0,1-1.4,2.4l-2.945.78a2,2,0,0,1-.514.067A1.981,1.981,0,0,1,.068,52.862Zm6.771-11.93a1.958,1.958,0,0,1,1.4-2.4l29.124-7.715A1.985,1.985,0,0,1,39.793,32.2a1.958,1.958,0,0,1-1.4,2.4L9.267,42.318a2.007,2.007,0,0,1-.514.067A1.98,1.98,0,0,1,6.839,40.933Zm7.988-10.984a1.958,1.958,0,0,1,1.4-2.4l11.906-3.154a1.985,1.985,0,0,1,2.428,1.386,1.958,1.958,0,0,1-1.4,2.4L17.254,31.334a2,2,0,0,1-.515.067A1.98,1.98,0,0,1,14.827,29.949Z" transform="translate(18.371 2.743)"/></g><g transform="translate(0 74.152)"><path class="c" d="M112.541,316.06a6.628,6.628,0,0,1,2.507-2.518,6.969,6.969,0,0,1,3.525-.909,7.217,7.217,0,0,1,3.976,1.086,6.24,6.24,0,0,1,2.477,3.081h-2.177a4.339,4.339,0,0,0-1.668-1.915,4.872,4.872,0,0,0-2.607-.671,5.123,5.123,0,0,0-2.617.671,4.716,4.716,0,0,0-1.818,1.906,6.634,6.634,0,0,0,0,5.767,4.716,4.716,0,0,0,1.818,1.906,5.123,5.123,0,0,0,2.617.671,4.929,4.929,0,0,0,2.607-.662,4.278,4.278,0,0,0,1.668-1.906h2.177a6.193,6.193,0,0,1-2.477,3.051,7.263,7.263,0,0,1-3.976,1.077,7.029,7.029,0,0,1-3.525-.9,6.572,6.572,0,0,1-2.507-2.5,7.585,7.585,0,0,1,0-7.238Z" transform="translate(-111.622 -311.489)"/><path class="c" d="M139.684,311.527v14.615h-1.818V311.527Z" transform="translate(-121.765 -311.053)"/><path class="c" d="M145.447,320.122a4.892,4.892,0,0,1,1.868-1.945,5.166,5.166,0,0,1,2.647-.691,4.9,4.9,0,0,1,2.5.613,4.109,4.109,0,0,1,1.578,1.541v-1.976h1.838v10.823h-1.838v-2.015a4.261,4.261,0,0,1-1.608,1.57,4.854,4.854,0,0,1-2.487.622,4.957,4.957,0,0,1-4.495-2.706,6.154,6.154,0,0,1-.679-2.923A6.026,6.026,0,0,1,145.447,320.122Zm8.09.8a3.516,3.516,0,0,0-1.349-1.393,3.864,3.864,0,0,0-3.725-.01,3.455,3.455,0,0,0-1.339,1.382,4.359,4.359,0,0,0-.5,2.133,4.457,4.457,0,0,0,.5,2.162,3.509,3.509,0,0,0,1.339,1.4,3.647,3.647,0,0,0,1.857.484,3.706,3.706,0,0,0,1.868-.484,3.5,3.5,0,0,0,1.349-1.4,4.419,4.419,0,0,0,.5-2.143A4.363,4.363,0,0,0,153.538,320.922Z" transform="translate(-124.433 -313.397)"/><path class="c" d="M169.126,328.239a3.792,3.792,0,0,1-1.578-1.185,3.127,3.127,0,0,1-.639-1.748h1.877a1.817,1.817,0,0,0,.769,1.324,2.953,2.953,0,0,0,1.808.514,2.656,2.656,0,0,0,1.638-.454,1.383,1.383,0,0,0,.6-1.146,1.128,1.128,0,0,0-.639-1.057,9.02,9.02,0,0,0-1.977-.681,14.586,14.586,0,0,1-1.987-.642,3.527,3.527,0,0,1-1.319-.968,2.506,2.506,0,0,1-.549-1.689,2.539,2.539,0,0,1,.5-1.521,3.379,3.379,0,0,1,1.418-1.1,5.153,5.153,0,0,1,2.1-.405,4.515,4.515,0,0,1,2.936.909,3.265,3.265,0,0,1,1.2,2.489h-1.818a1.851,1.851,0,0,0-.689-1.363,2.591,2.591,0,0,0-1.688-.513,2.63,2.63,0,0,0-1.558.414,1.277,1.277,0,0,0-.579,1.086,1.183,1.183,0,0,0,.35.879,2.552,2.552,0,0,0,.879.553,15.222,15.222,0,0,0,1.468.464,15.831,15.831,0,0,1,1.918.622,3.355,3.355,0,0,1,1.269.918,2.44,2.44,0,0,1,.549,1.6,2.717,2.717,0,0,1-.5,1.6,3.328,3.328,0,0,1-1.408,1.115,5.085,5.085,0,0,1-2.088.405A5.714,5.714,0,0,1,169.126,328.239Z" transform="translate(-132.99 -313.397)"/><path class="c" d="M184.753,312.936a1.23,1.23,0,0,1,0-1.738,1.2,1.2,0,0,1,.879-.355,1.149,1.149,0,0,1,.849.355,1.254,1.254,0,0,1,0,1.738,1.146,1.146,0,0,1-.849.355A1.2,1.2,0,0,1,184.753,312.936Zm1.758,2.113v10.823h-1.818V315.05Z" transform="translate(-139.747 -310.784)"/><path class="c" d="M196.666,316.493h-2.3v9.342h-1.818v-9.342h-1.418v-1.482h1.418v-.77a3.373,3.373,0,0,1,.949-2.657,4.537,4.537,0,0,1,3.046-.839v1.5a2.435,2.435,0,0,0-1.688.464,2.035,2.035,0,0,0-.49,1.531v.77h2.3Z" transform="translate(-142.352 -310.746)"/><path class="c" d="M203.475,312.936a1.23,1.23,0,0,1,0-1.738,1.2,1.2,0,0,1,.879-.355,1.149,1.149,0,0,1,.849.355,1.256,1.256,0,0,1,0,1.738,1.146,1.146,0,0,1-.849.355A1.2,1.2,0,0,1,203.475,312.936Zm1.758,2.113v10.823h-1.817V315.05Z" transform="translate(-146.983 -310.784)"/><path class="c" d="M211.185,320.122a4.855,4.855,0,0,1,1.888-1.945,6.051,6.051,0,0,1,6.093.277,4.566,4.566,0,0,1,1.728,2.686h-1.957a2.784,2.784,0,0,0-1.089-1.56,3.389,3.389,0,0,0-2.007-.573,3.24,3.24,0,0,0-2.517,1.056,4.3,4.3,0,0,0-.959,2.992,4.366,4.366,0,0,0,.959,3.022,3.224,3.224,0,0,0,2.517,1.067,3.429,3.429,0,0,0,2-.553,2.806,2.806,0,0,0,1.1-1.58h1.957a4.757,4.757,0,0,1-1.758,2.657,5.306,5.306,0,0,1-3.3,1,5.471,5.471,0,0,1-2.767-.691,4.835,4.835,0,0,1-1.888-1.955,6.168,6.168,0,0,1-.679-2.963A6.069,6.069,0,0,1,211.185,320.122Z" transform="translate(-149.839 -313.397)"/><path class="c" d="M230.949,320.122a4.892,4.892,0,0,1,1.868-1.945,5.166,5.166,0,0,1,2.647-.691,4.9,4.9,0,0,1,2.5.613,4.109,4.109,0,0,1,1.578,1.541v-1.976h1.838v10.823h-1.838v-2.015a4.266,4.266,0,0,1-1.608,1.57,4.854,4.854,0,0,1-2.487.622,4.957,4.957,0,0,1-4.495-2.706,6.155,6.155,0,0,1-.679-2.923A6.026,6.026,0,0,1,230.949,320.122Zm8.09.8a3.516,3.516,0,0,0-1.349-1.393,3.865,3.865,0,0,0-3.726-.01,3.457,3.457,0,0,0-1.338,1.382,4.359,4.359,0,0,0-.5,2.133,4.457,4.457,0,0,0,.5,2.162,3.512,3.512,0,0,0,1.338,1.4,3.651,3.651,0,0,0,1.858.484,3.706,3.706,0,0,0,1.868-.484,3.5,3.5,0,0,0,1.349-1.4,4.419,4.419,0,0,0,.5-2.143A4.363,4.363,0,0,0,239.04,320.922Z" transform="translate(-157.478 -313.397)"/><path class="c" d="M252.96,317.778a4.892,4.892,0,0,1,1.868-1.945,5.2,5.2,0,0,1,2.667-.691,5,5,0,0,1,2.377.583,4.235,4.235,0,0,1,1.679,1.53v-5.727h1.837v14.615H261.55v-2.034a4.235,4.235,0,0,1-1.6,1.59,4.8,4.8,0,0,1-2.477.622,5.059,5.059,0,0,1-2.647-.711,4.982,4.982,0,0,1-1.868-1.995,6.148,6.148,0,0,1-.68-2.923A6.019,6.019,0,0,1,252.96,317.778Zm8.09.8a3.513,3.513,0,0,0-1.349-1.393,3.864,3.864,0,0,0-3.725-.01,3.458,3.458,0,0,0-1.338,1.382,4.359,4.359,0,0,0-.5,2.133,4.457,4.457,0,0,0,.5,2.162,3.512,3.512,0,0,0,1.338,1.4,3.651,3.651,0,0,0,1.858.484,3.7,3.7,0,0,0,1.868-.484,3.493,3.493,0,0,0,1.349-1.4,4.42,4.42,0,0,0,.5-2.143A4.363,4.363,0,0,0,261.05,318.578Z" transform="translate(-165.985 -311.053)"/><path class="c" d="M276.958,327.972A4.94,4.94,0,0,1,275,326.007a5.966,5.966,0,0,1-.709-2.953,5.8,5.8,0,0,1,.729-2.933,5,5,0,0,1,1.988-1.955,6.159,6.159,0,0,1,5.633,0,5.009,5.009,0,0,1,1.988,1.945,5.788,5.788,0,0,1,.729,2.942,5.715,5.715,0,0,1-.749,2.953,5.164,5.164,0,0,1-2.028,1.965,5.865,5.865,0,0,1-2.837.691A5.652,5.652,0,0,1,276.958,327.972Zm4.625-1.343a3.474,3.474,0,0,0,1.388-1.363,4.32,4.32,0,0,0,.53-2.212,4.394,4.394,0,0,0-.52-2.212,3.383,3.383,0,0,0-1.358-1.353,3.958,3.958,0,0,0-3.645,0,3.27,3.27,0,0,0-1.329,1.353,4.532,4.532,0,0,0-.5,2.212,4.654,4.654,0,0,0,.49,2.232,3.226,3.226,0,0,0,1.309,1.353,3.71,3.71,0,0,0,1.8.445A3.87,3.87,0,0,0,281.583,326.63Z" transform="translate(-174.492 -313.397)"/><path class="c" d="M297.478,328.239a3.794,3.794,0,0,1-1.579-1.185,3.132,3.132,0,0,1-.639-1.748h1.878a1.817,1.817,0,0,0,.769,1.324,2.951,2.951,0,0,0,1.807.514,2.652,2.652,0,0,0,1.638-.454,1.384,1.384,0,0,0,.6-1.146,1.128,1.128,0,0,0-.639-1.057,9.032,9.032,0,0,0-1.977-.681,14.654,14.654,0,0,1-1.988-.642,3.525,3.525,0,0,1-1.318-.968,2.506,2.506,0,0,1-.549-1.689,2.543,2.543,0,0,1,.5-1.521,3.386,3.386,0,0,1,1.419-1.1,5.151,5.151,0,0,1,2.1-.405,4.517,4.517,0,0,1,2.936.909,3.264,3.264,0,0,1,1.2,2.489h-1.817a1.853,1.853,0,0,0-.689-1.363,2.592,2.592,0,0,0-1.688-.513,2.627,2.627,0,0,0-1.558.414,1.277,1.277,0,0,0-.579,1.086,1.182,1.182,0,0,0,.349.879,2.558,2.558,0,0,0,.879.553,15.3,15.3,0,0,0,1.469.464,15.906,15.906,0,0,1,1.918.622,3.353,3.353,0,0,1,1.268.918,2.436,2.436,0,0,1,.549,1.6,2.717,2.717,0,0,1-.5,1.6,3.322,3.322,0,0,1-1.407,1.115,5.089,5.089,0,0,1-2.088.405A5.71,5.71,0,0,1,297.478,328.239Z" transform="translate(-182.596 -313.397)"/></g><g transform="translate(121.399 74.303)"><path class="d" d="M317.634,310.995,309.5,325.933h3.852l1.377-2.639h5.639l.43,2.639h3.9l-2.8-14.938Zm-1.464,9.533L319.054,315l.882,5.532Z" transform="translate(-309.498 -310.995)"/><path class="e" d="M349.169,312.027a5.368,5.368,0,0,0-3.573-1.032h-5.961l-2.669,14.938h3.68l.969-5.363H343.9a7.332,7.332,0,0,0,3.218-.659,5.724,5.724,0,0,0,2.163-1.735,5.43,5.43,0,0,0,1.012-2.372,5.263,5.263,0,0,0,.085-.979A3.5,3.5,0,0,0,349.169,312.027Zm-2.626,3.777a2.193,2.193,0,0,1-2.432,1.915h-1.98l.667-3.83h2a2.056,2.056,0,0,1,1.345.372,1.3,1.3,0,0,1,.441,1.054A4.4,4.4,0,0,1,346.544,315.8Z" transform="translate(-320.114 -310.995)"/><path class="e" d="M371.06,312.027a5.369,5.369,0,0,0-3.573-1.032h-5.961l-2.669,14.938h3.68l.969-5.363h2.28a7.329,7.329,0,0,0,3.218-.659,5.721,5.721,0,0,0,2.163-1.735,5.421,5.421,0,0,0,1.012-2.372,5.207,5.207,0,0,0,.086-.979A3.494,3.494,0,0,0,371.06,312.027Zm-2.626,3.777A2.193,2.193,0,0,1,366,317.719h-1.98l.667-3.83h2a2.054,2.054,0,0,1,1.345.372,1.3,1.3,0,0,1,.442,1.054A4.406,4.406,0,0,1,368.434,315.8Z" transform="translate(-328.574 -310.995)"/></g></g></svg>