<svg xmlns="http://www.w3.org/2000/svg" width="16.997" height="24.31" viewBox="0 0 16.997 24.31"><defs><style>.a{fill:#233ba0;stroke:#233ba0;stroke-width:0.4px;}</style></defs><g transform="translate(0.2 0.2)"><path class="a" d="M164.6,433.017a.7.7,0,1,1-.7-.7A.7.7,0,0,1,164.6,433.017Zm0,0" transform="translate(-155.605 -412.127)"/><path class="a" d="M13.593,0H4A3.508,3.508,0,0,0,.5,3.5v16.9A3.508,3.508,0,0,0,4,23.91h9.589a3.508,3.508,0,0,0,3.5-3.5V3.5A3.508,3.508,0,0,0,13.593,0Zm2.1,20.406a2.106,2.106,0,0,1-2.1,2.1H4a2.106,2.106,0,0,1-2.1-2.1V19.27H15.7Zm0-2.537H1.9V3.5A2.106,2.106,0,0,1,4,1.4h9.589a2.106,2.106,0,0,1,2.1,2.1Zm0,0" transform="translate(-0.5 0)"/></g></svg>