<svg xmlns="http://www.w3.org/2000/svg" width="41" height="41" viewBox="0 0 41 41"><defs><style>.a{fill:none;}.b{fill:#49d8f7;}</style></defs><rect class="a" width="41" height="41"/><g transform="translate(8.584 8.584)"><path class="b" d="M191.353,330.056l-5.647-5.648a10.107,10.107,0,1,0-7.827,3.718h.011a10.068,10.068,0,0,0,6.381-2.283l5.647,5.649a1.016,1.016,0,0,0,1.391.041h.087v-.087a1.017,1.017,0,0,0-.043-1.39Zm-21.7-12.039h.143a8.081,8.081,0,0,1,16.162,0,8.008,8.008,0,0,1-2.271,5.613,1.206,1.206,0,0,0-.106.092.7.7,0,0,0-.075.088,8.011,8.011,0,0,1-5.621,2.286h-.007a8.1,8.1,0,0,1-8.082-8.08Z" transform="translate(-167.768 -307.906)"/></g></svg>