<svg xmlns="http://www.w3.org/2000/svg" width="23.751" height="19.498" viewBox="0 0 23.751 19.498"><defs><style>.a{fill:#49d8f7;}</style></defs><path class="a" d="M.473,19.595A13.928,13.928,0,0,0,7.951,21.75a13.676,13.676,0,0,0,13.874-13.9A5.679,5.679,0,0,0,23.875,4a.751.751,0,0,0-1.13-.647,3.1,3.1,0,0,1-2.522.423,5.356,5.356,0,0,0-6.344-.854,5.153,5.153,0,0,0-2.8,4.83,12.427,12.427,0,0,1-8.061-4.4.751.751,0,0,0-1.226.1,5.227,5.227,0,0,0-.117,5.162.781.781,0,0,0-.652.777,5.29,5.29,0,0,0,1.843,3.995.749.749,0,0,0-.192.777,5.384,5.384,0,0,0,3.047,3.264,8.732,8.732,0,0,1-4.756.794A.75.75,0,0,0,.473,19.6Zm7.683-1.914a.751.751,0,0,0-.441-1.344,3.912,3.912,0,0,1-3.072-1.6,5.29,5.29,0,0,0,1.024-.164.751.751,0,0,0-.048-1.459A3.85,3.85,0,0,1,2.7,10.5a5.176,5.176,0,0,0,1.144.152.751.751,0,0,0,.427-1.376A3.726,3.726,0,0,1,2.677,5.2a13.943,13.943,0,0,0,9.237,4.123.749.749,0,0,0,.767-.917,3.659,3.659,0,0,1,1.91-4.167,3.835,3.835,0,0,1,4.688.712c.447.471,1.955.489,2.722.31a4.834,4.834,0,0,1-1.368,1.609.75.75,0,0,0-.319.651,12.194,12.194,0,0,1-3.358,8.96,12.282,12.282,0,0,1-9,3.764,12.594,12.594,0,0,1-4.041-.662,10.128,10.128,0,0,0,4.245-1.906Z" transform="translate(-0.124 -2.252)"/></svg>