<svg xmlns="http://www.w3.org/2000/svg" width="20.192" height="20.187" viewBox="0 0 20.192 20.187"><defs><style>.a{fill:#fff;}</style></defs><g transform="translate(0 0)"><path class="a" d="M18.66,6.847a5.614,5.614,0,0,0,.1-1.023A5.77,5.77,0,0,0,7.561,3.865,2.885,2.885,0,0,0,3.689,5.872a4.327,4.327,0,0,0,.642,8.607H7.936a.721.721,0,1,0,0-1.442H4.33a2.885,2.885,0,1,1,0-5.77.721.721,0,0,0,.721-.721A1.442,1.442,0,0,1,7.5,5.518a.721.721,0,0,0,1.218-.4,4.323,4.323,0,0,1,8.529,1.418q-.035.211-.091.417a.721.721,0,0,0,.3.793,2.885,2.885,0,0,1-1.588,5.289H13.706a.721.721,0,0,0,0,1.442H15.87a4.327,4.327,0,0,0,2.79-7.632Z" transform="translate(-0.001 -0.062)"/></g><g transform="translate(6.501 6.484)"><path class="a" d="M162.268,157.319l-3.606-3.606a.712.712,0,0,0-.235-.156.723.723,0,0,0-.786.156l-3.606,3.606a.721.721,0,0,0,1.02,1.02l2.376-2.375v10.52a.721.721,0,1,0,1.442,0v-10.52l2.375,2.375a.721.721,0,0,0,1.02-1.02Z" transform="translate(-153.832 -153.501)"/></g></svg>